<?xml version="1.0" standalone="no"?>
<!DOCTYPE svg PUBLIC "-//W3C//DTD SVG 1.1//EN" "http://www.w3.org/Graphics/SVG/1.1/DTD/svg11.dtd" >
<svg xmlns="http://www.w3.org/2000/svg">
<metadata></metadata>
<defs>
<font id="GillSans-LightLight" horiz-adv-x="1024" >
<font-face units-per-em="2048" ascent="1638" descent="-410" />
<missing-glyph horiz-adv-x="569" />
<glyph horiz-adv-x="0" />
<glyph horiz-adv-x="2048" />
<glyph unicode=" "  horiz-adv-x="569" />
<glyph unicode="&#x09;" horiz-adv-x="569" />
<glyph unicode="&#xa0;" horiz-adv-x="569" />
<glyph unicode="!" horiz-adv-x="362" d="M115 0h133v199h-133v-199zM115 1397l35 -1004h63l35 1004h-133z" />
<glyph unicode="&#x22;" horiz-adv-x="569" d="M76 1178l24 -256h86l25 256v223h-135v-223zM358 1178l25 -256h86l25 256v223h-136v-223z" />
<glyph unicode="#" horiz-adv-x="1351" d="M158 430h170l-86 -416h94l86 416h389l-86 -416h94l86 416h289v94h-268l82 391h186v95h-168l88 420h-94l-88 -420h-389l86 420h-94l-86 -420h-291v-95h270l-80 -391h-190v-94zM442 524l80 391h391l-82 -391h-389z" />
<glyph unicode="$" horiz-adv-x="1067" d="M72 145q171 -147 411 -163v-222h99v222q211 15 319 137q90 101 90 233q0 261 -409 371v534q102 -10 178 -41.5t172 -101.5v115q-88 63 -163 90t-187 35v61h-99v-61q-205 -11 -311 -124q-90 -96 -90 -219.5t98.5 -213.5t302.5 -152v-567q-113 16 -201.5 54t-209.5 126 v-113zM186 1020q0 90 82 162.5t215 74.5v-503q-297 82 -297 266zM582 78v534q166 -51 235.5 -114.5t69.5 -164.5t-87 -175t-218 -80z" />
<glyph unicode="%" horiz-adv-x="1429" d="M39 1085q0 -135 97 -232t233 -97q134 0 232 96q97 95 97 233q0 139 -97 234q-98 96 -232 96q-135 0 -233 -96q-97 -95 -97 -234zM94 -23h103l1124 1432h-100zM127 1084q0 99 70.5 171t171.5 72q100 0 170.5 -71t70.5 -171t-70.5 -170.5t-170.5 -70.5t-171 70.5t-71 169.5 zM731 305q0 -135 97 -232q98 -98 233 -98q133 0 232 97q98 96 98 233q0 138 -98 234t-232 96q-135 0 -233 -96q-97 -95 -97 -234zM819 304q0 99 71 171t171 72t171 -71t71 -171t-71 -171t-171 -71t-171 71t-71 170z" />
<glyph unicode="&#x26;" horiz-adv-x="1259" d="M53 304.5q0 -141.5 100.5 -232t258.5 -90.5t269.5 59t217.5 178l211 -219h137l-284 301q127 190 192 395h-115q-59 -175 -153 -315l-318 330q293 148 293 370q0 125 -86 207t-222 82t-232.5 -88t-96.5 -217q0 -80 42 -155.5t132 -170.5q-168 -72 -257 -182.5t-89 -252z M170 325q0 114 70.5 191.5t230.5 147.5l354 -369q-176 -213 -385 -213q-127 0 -198.5 64.5t-71.5 178.5zM330 1071q0 84 63.5 141.5t155.5 57.5t152.5 -56.5t60.5 -142.5t-67.5 -159t-194.5 -126q-170 156 -170 285z" />
<glyph unicode="'" horiz-adv-x="454" d="M160 1178l24 -256h86l25 256v223h-135v-223z" />
<glyph unicode="(" horiz-adv-x="681" d="M164 473q0 -266 102.5 -506.5t298.5 -437.5h103q-193 176 -296.5 431t-103.5 513t102.5 512t295.5 430h-103q-399 -399 -399 -942z" />
<glyph unicode=")" horiz-adv-x="681" d="M14 -471h103q197 197 299 437.5t102 506.5t-102.5 506t-298.5 436h-103q195 -176 297.5 -430t102.5 -512t-102.5 -513t-297.5 -431z" />
<glyph unicode="*" horiz-adv-x="960" d="M66 954l374 35l4 -10l-290 -234l71 -69l236 289l8 -2l-37 -379h94l-34 379l10 2l237 -289l70 69l-289 234l6 12l369 -41v97l-369 -33l-4 10l287 231l-70 72l-237 -285l-10 7l34 366h-94l37 -368l-10 -5l-234 285l-71 -72l286 -231l-2 -12l-372 37v-95z" />
<glyph unicode="+" horiz-adv-x="1351" d="M139 674h492v-492h90v492h491v90h-491v491h-90v-491h-492v-90z" />
<glyph unicode="," horiz-adv-x="362" d="M115 0h43q0 -104 -43 -168v-72q66 47 99.5 124t33.5 159v156h-133v-199z" />
<glyph unicode="-" horiz-adv-x="641" d="M78 414h485v96h-485v-96z" />
<glyph unicode="." horiz-adv-x="362" d="M115 0h133v199h-133v-199z" />
<glyph unicode="/" horiz-adv-x="575" d="M6 -18h96l449 1433h-94z" />
<glyph unicode="0" d="M66 674q0 -311 126 -502q124 -190 324 -190q186 0 312 188q130 195 130 540q0 401 -194 597q-108 108 -252 108q-72 0 -140 -31q-306 -144 -306 -710zM170 698q0 275 95 446q96 173 247 173q165 0 258 -191q84 -172 84 -428q0 -121 -22.5 -233.5t-66.5 -198.5 q-95 -186 -257 -186q-151 0 -244 171q-94 173 -94 447z" />
<glyph unicode="1" d="M459 0h104v1397h-104v-1397z" />
<glyph unicode="2" d="M76 0h887v96h-650q270 307 392 529.5t122 388.5q0 169 -117 284q-119 117 -290.5 117t-327.5 -127v-123q98 86 167 119t151 33q133 0 223 -87t90 -218q0 -387 -647 -1012z" />
<glyph unicode="3" d="M139 51q138 -69 322 -69q163 0 283 98q135 109 135 303q0 123 -65.5 217t-205.5 139v4q127 39 190.5 126t63.5 194q0 156 -116.5 254t-294 98t-299.5 -90v-100q137 92 280 92t234.5 -75t91.5 -186.5t-93.5 -191.5t-250.5 -80v-98q170 0 265 -84t95 -221t-90 -219 t-244.5 -82t-300.5 67v-96z" />
<glyph unicode="4" d="M29 539h637v-539h104v539h195v84h-195v792h-39l-702 -842v-34zM174 623l488 589h4v-589h-492z" />
<glyph unicode="5" d="M84 74q176 -92 336 -92q195 0 323.5 128.5t128.5 326.5t-128 313.5t-334 115.5q-55 0 -113 -8v442h494v97h-592v-652q100 29 192 29q166 0 271.5 -90t105.5 -250t-97.5 -257t-244 -97t-342.5 113v-119z" />
<glyph unicode="6" d="M125 473q0 -223 115.5 -357t300 -134t296 110.5t111.5 282.5q0 164 -112 272q-112 109 -276.5 109t-311.5 -109q31 178 170 362.5t350 331.5l-61 74q-279 -207 -430.5 -436t-151.5 -506zM225 455q0 32 4 71q150 131 314 131q127 0 214 -86t87 -208t-86 -202.5t-219 -80.5 t-223.5 100.5t-90.5 274.5z" />
<glyph unicode="7" d="M59 1300h762l-577 -1280l90 -38l639 1415h-914v-97z" />
<glyph unicode="8" d="M115 373q0 -163 117 -277q115 -114 284 -114q166 0 282 116q113 113 113 283q0 221 -206 346q178 121 178 317q0 150 -110 262q-108 109 -263 109q-152 0 -258 -109q-111 -115 -111 -264q1 -192 183 -315q-209 -125 -209 -354zM219 377q0 123 84 210t208 87t210 -83 t86 -210t-81 -214t-208 -87t-213 87t-86 210zM246 1044q0 115 76.5 194t188.5 79t189.5 -78t77.5 -193.5t-74.5 -194.5t-188.5 -79t-191.5 79t-77.5 193z" />
<glyph unicode="9" d="M66 1026q0 -163 112 -274q111 -109 277 -109q142 0 307 105q-33 -174 -153 -341t-371 -350l57 -75q311 223 452.5 456.5t141.5 474t-115 371.5t-301 131t-296.5 -109.5t-110.5 -279.5zM170 1031q0 124 86 205t225.5 81t220 -103.5t80.5 -279.5v-29q-2 -23 -2 -33 q-145 -131 -321 -131q-125 0 -207 83t-82 207z" />
<glyph unicode=":" horiz-adv-x="362" d="M115 0h133v199h-133v-199zM115 721h133v199h-133v-199z" />
<glyph unicode=";" horiz-adv-x="362" d="M115 0h43q0 -104 -43 -168v-72q66 47 99.5 124t33.5 159v156h-133v-199zM115 721h133v199h-133v-199z" />
<glyph unicode="&#x3c;" horiz-adv-x="1351" d="M139 674l1073 -451v101l-950 393l950 393v100l-1073 -450v-86z" />
<glyph unicode="=" horiz-adv-x="1351" d="M139 426h1073v90h-1073v-90zM139 920h1073v90h-1073v-90z" />
<glyph unicode="&#x3e;" horiz-adv-x="1351" d="M139 223l1073 451v86l-1073 450v-100l951 -393l-951 -393v-101z" />
<glyph unicode="?" horiz-adv-x="575" d="M51 1219h21q66 109 164 108q63 0 108 -56.5t45 -139t-31.5 -155.5t-91 -168t-87 -155.5t-27.5 -141.5t79 -173l37 29q-39 68 -39 129t28 116.5t94.5 149.5t104.5 175t38 199.5t-71 198.5t-185 80q-68 0 -140 -37zM174 0h133v199h-133v-199z" />
<glyph unicode="@" horiz-adv-x="1638" d="M-4 535q0 -384 240 -623q240 -238 630 -238q244 0 454 100.5t322 293.5h-102q-233 -311 -672 -312q-355 0 -571 214q-217 216 -217 562q0 350 219 577q216 224 559 224q188 0 320.5 -61.5t207.5 -158.5q140 -179 140 -425q0 -133 -41 -241.5t-103.5 -182.5t-129 -113.5 t-116.5 -39.5t-51 45q0 25 13 75l170 803h-125l-33 -168h-4q-45 98 -126 145.5t-181.5 47.5t-194.5 -51.5t-164 -138.5q-147 -185 -147 -427q0 -184 98 -302q100 -120 248 -120q184 0 338 185l4 -4q-8 -39 -8 -68q0 -113 121 -113q82 0 172 47.5t168.5 136.5t127 213 t48.5 264t-42 268t-132 233.5t-232.5 169t-347.5 63.5t-373 -74.5t-275 -201.5q-212 -250 -212 -604zM420 436q0 181 96 346q49 84 122 136.5t176.5 52.5t175 -80t71.5 -203q0 -184 -107 -370q-51 -89 -122.5 -145t-169 -56t-170 91t-72.5 228z" />
<glyph unicode="A" horiz-adv-x="1366" d="M8 0h113l221 483h682l221 -483h113l-645 1407h-60zM383 573l299 658l301 -658h-600z" />
<glyph unicode="B" horiz-adv-x="1087" d="M164 0h409q215 0 342 100.5t127 270.5q0 287 -323 354q104 57 152.5 132t48.5 161t-21.5 148.5t-74.5 114.5q-117 116 -369 116h-291v-1397zM272 90v569h242q327 0 394 -179q18 -50 18 -104t-17.5 -104.5t-59.5 -91.5q-92 -90 -288 -90h-289zM272 750v557h146 q178 0 281.5 -64.5t103.5 -206t-89 -214t-292 -72.5h-150z" />
<glyph unicode="C" horiz-adv-x="1386" d="M100 698q0 -154 55.5 -284.5t156.5 -227.5q212 -204 532 -204q250 0 495 131v112q-269 -143 -497 -143q-273 0 -449 172t-176 442q0 266 174 442q175 177 426.5 177t507.5 -135v118q-254 117 -491 117q-143 0 -275.5 -52t-236 -148.5t-163 -229.5t-59.5 -287z" />
<glyph unicode="D" horiz-adv-x="1515" d="M162 0h508q199 0 343 60.5t232 161.5q168 194 168 476q0 280 -164 472q-88 102 -237.5 164.5t-360.5 62.5h-489v-1397zM270 90v1217h387q286 0 462 -170q177 -171 177 -439q0 -280 -188 -449q-177 -159 -444 -159h-394z" />
<glyph unicode="E" horiz-adv-x="1003" d="M164 0h778v90h-670v567h637v91h-637v559h654v90h-762v-1397z" />
<glyph unicode="F" horiz-adv-x="897" d="M160 0h108v686h551v90h-551v531h611v90h-719v-1397z" />
<glyph unicode="G" horiz-adv-x="1472" d="M102 702q0 -152 57.5 -284.5t160 -230t242.5 -151.5t300 -54q250 0 496 118v535h-404v-90h295v-377q-176 -86 -359.5 -86t-306 50t-203.5 137q-161 173 -161 429q0 267 175 442t430 175t507 -141v122q-147 66 -253.5 92.5t-246 26.5t-276.5 -53t-239 -150 q-214 -201 -214 -510z" />
<glyph unicode="H" horiz-adv-x="1472" d="M162 0h108v662h932v-662h109v1397h-109v-645h-932v645h-108v-1397z" />
<glyph unicode="I" horiz-adv-x="425" d="M160 0h108v1397h-108v-1397z" />
<glyph unicode="J" horiz-adv-x="425" d="M-92 -301l10 -102q39 -4 71 -4q63 0 99 17q53 25 101.5 73.5t67.5 125t19 191.5v1397h-108v-1426q0 -137 -51 -208.5t-146 -71.5q-29 0 -63 8z" />
<glyph unicode="K" horiz-adv-x="1087" d="M156 0h108v700l731 -700h138l-730 700l666 697h-135l-670 -697v697h-108v-1397z" />
<glyph unicode="L" horiz-adv-x="960" d="M162 0h799v90h-691v1307h-108v-1397z" />
<glyph unicode="M" horiz-adv-x="1599" d="M158 0h108v1239h4l529 -653l528 653h4v-1239h109v1397h-109l-532 -649l-533 649h-108v-1397z" />
<glyph unicode="N" horiz-adv-x="1579" d="M160 0h108v1221l1061 -1221h90v1397h-108v-1221l-1059 1221h-92v-1397z" />
<glyph unicode="O" horiz-adv-x="1685" d="M104 698q0 -147 56.5 -278t157.5 -230q212 -208 524 -208q313 0 526 208q102 99 158.5 230t56.5 278t-56.5 278.5t-157.5 231t-237.5 153.5t-289.5 54q-311 0 -524 -207q-214 -208 -214 -510zM221 699q0 128 47 241t133 197q182 178 445 178q261 0 441 -178 q179 -177 179 -439q0 -261 -179 -438q-180 -178 -441 -178q-263 0 -445 178q-86 84 -133 197.5t-47 241.5z" />
<glyph unicode="P" horiz-adv-x="1044" d="M160 0h108v653h267q249 0 366 117q100 100 100 261t-111.5 263.5t-344.5 102.5h-385v-1397zM268 743v564h273q174 0 259 -79t85 -204t-86 -203t-271 -78h-260z" />
<glyph unicode="Q" horiz-adv-x="1685" d="M104 696q0 -272 184 -479q188 -211 478 -235q125 -104 277.5 -177t357.5 -98l121 141l-23 21q-69 -51 -151 -51t-202 46t-222 118q184 25 314 104.5t206 187.5q139 196 139 426q0 305 -211 510t-530 205q-316 0 -526 -207q-212 -207 -212 -512zM221 698q0 257 181 438 q85 85 200 132t243 47t241.5 -47t199.5 -131t133 -197t47 -241t-48 -240.5t-136 -197.5q-185 -179 -444 -179q-260 0 -438 180q-179 181 -179 436z" />
<glyph unicode="R" horiz-adv-x="1173" d="M162 0h108v670h189q70 0 112.5 -8.5t82.5 -35.5q65 -45 194 -243l244 -383h127l-316 483q-59 90 -100 139.5t-86 73.5q266 98 266 340q0 156 -105 253q-118 108 -358 108h-358v-1397zM270 760v547h228q184 0 276 -74t92 -201t-92 -199.5t-272 -72.5h-232z" />
<glyph unicode="S" horiz-adv-x="960" d="M94 1044q0 -216 209 -312q53 -25 136 -57t134.5 -55.5t93.5 -57.5q93 -75 93 -198t-85 -202.5t-210 -79.5q-82 0 -159 32.5t-193 116.5v-127q183 -122 355 -122h3q170 0 287 110q119 111 119 273q0 234 -221 337q-56 27 -139 58t-130 52.5t-88 53.5q-88 67 -88 182.5 t85 191t210 75.5q72 0 139.5 -22.5t173.5 -84.5v119q-162 88 -323 88q-166 0 -284 -108.5t-118 -262.5z" />
<glyph unicode="T" horiz-adv-x="1173" d="M8 1307h524v-1307h109v1307h524v90h-1157v-90z" />
<glyph unicode="U" horiz-adv-x="1429" d="M131 610q0 -303 171 -470q162 -158 413 -158q244 0 403 150q182 171 182 503v762h-108v-768q0 -277 -148 -421q-130 -126 -329 -126q-200 0 -333 131q-142 140 -142 401v783h-109v-787z" />
<glyph unicode="V" horiz-adv-x="1216" d="M6 1397l588 -1411h31l585 1411h-108l-492 -1182l-495 1182h-109z" />
<glyph unicode="W" horiz-adv-x="2111" d="M-2 1397l561 -1411h29l469 1179l469 -1179h26l562 1411h-111l-463 -1159l-467 1159h-33l-469 -1159l-462 1159h-111z" />
<glyph unicode="X" horiz-adv-x="1409" d="M0 0h139l566 639l565 -639h139l-635 715l600 682h-139l-530 -602l-533 602h-139l600 -682z" />
<glyph unicode="Y" horiz-adv-x="1193" d="M0 1397l543 -647v-750h108v750l543 647h-131l-465 -553l-467 553h-131z" />
<glyph unicode="Z" horiz-adv-x="1300" d="M18 31l11 -31h1222v90h-1054l1046 1268l-10 39h-1167v-90h999z" />
<glyph unicode="[" horiz-adv-x="618" d="M141 -451h463v97h-364v1654h364v97h-463v-1848z" />
<glyph unicode="\" horiz-adv-x="575" d="M25 1415l450 -1433h94l-448 1433h-96z" />
<glyph unicode="]" horiz-adv-x="618" d="M14 -354v-97h463v1848h-463v-97h365v-1654h-365z" />
<glyph unicode="^" horiz-adv-x="1351" d="M227 879l64 -54l385 461l383 -461l65 54l-448 536z" />
<glyph unicode="_" d="M-12 -154v-102h1048v102h-1048z" />
<glyph unicode="`" horiz-adv-x="681" d="M158 1386l311 -319h68l-213 319h-166z" />
<glyph unicode="a" horiz-adv-x="874" d="M74 210q0 -91 71.5 -159.5t176.5 -68.5q143 0 288 114q6 -70 19.5 -92t45.5 -22q59 0 187 96v82q-101 -82 -131 -82q-23 0 -22 47v573q0 131 -98 190q-82 50 -206.5 50t-279.5 -98v-101q84 63 146.5 90t134.5 27q205 0 204 -188v-117q-370 -14 -492 -187 q-44 -63 -44 -154zM172 215q0 115 122 184.5t316 69.5v-287q-72 -66 -131 -92.5t-131 -26.5t-124 43.5t-52 108.5z" />
<glyph unicode="b" horiz-adv-x="1044" d="M127 51q179 -69 326 -69q233 0 373.5 138t140.5 353t-114 340t-296 125q-104 0 -179 -36t-153 -114v609h-98v-1346zM225 121v557q84 94 159 136t161 42q139 0 228 -104.5t89 -268.5q0 -177 -116 -291t-295 -114q-111 0 -226 43z" />
<glyph unicode="c" horiz-adv-x="854" d="M86 449.5q0 -212.5 124 -340t327 -127.5q117 0 256 47v102q-130 -53 -248 -53q-162 0 -258.5 102.5t-96.5 275.5t96.5 279.5t250.5 106.5q102 0 239 -58v109q-140 45 -241 45t-183 -36t-141 -102q-125 -138 -125 -350.5z" />
<glyph unicode="d" horiz-adv-x="1044" d="M84 461q0 -203 136 -343q132 -136 329 -136q80 0 139.5 19t132.5 71v-72h99v1397h-99v-533q-84 41 -143.5 57.5t-144 16.5t-169.5 -36t-148 -100q-132 -137 -132 -341zM188 466.5q0 164.5 102.5 270t262.5 105.5q72 0 132 -19.5t136 -66.5v-594q-70 -47 -124 -65.5 t-130 -18.5t-146.5 28.5t-122.5 81.5q-110 114 -110 278.5z" />
<glyph unicode="e" horiz-adv-x="980" d="M82 471q0 -211 129 -351q126 -138 325.5 -138t358.5 122v111q-167 -137 -342 -137q-150 0 -259 105q-110 106 -110 263v23q2 14 2 25h725q0 215 -127 336q-115 108 -280 108q-183 0 -302 -132q-120 -133 -120 -335zM199 573q27 125 108.5 197t196.5 72q240 0 291 -269 h-596z" />
<glyph unicode="f" horiz-adv-x="491" d="M23 840h170v-840h98v840h178v80h-178v114q0 145 54 215t169 70q68 0 166 -35v92q-93 39 -168 39q-127 0 -223 -89t-96 -255v-151h-170v-80z" />
<glyph unicode="g" horiz-adv-x="874" d="M37 -234q0 -97 101.5 -167t298 -70t306 70.5t109.5 197.5q0 147 -119 203q-53 25 -109.5 32t-160 13t-158.5 23.5t-55 68.5t43 73.5t129 45t139 42t103 55.5q108 79 108 243q0 68 -29.5 125t-97.5 119h209v80h-369q-204 0 -304 -104q-87 -91 -87 -224q0 -96 59.5 -182 t186.5 -123v-4q-94 -29 -139 -61t-45 -89q0 -96 149 -131v-4q-129 -20 -198.5 -77.5t-69.5 -154.5zM131 -219q0 53 34 88t85 53q86 29 220 29t211 -36t77 -122t-85 -134t-232 -48t-228.5 44t-81.5 126zM188 596q0 102 70 172t172 70t175 -72t73 -173t-71.5 -173t-175 -72 t-173.5 73t-70 175z" />
<glyph unicode="h" horiz-adv-x="1003" d="M127 0h98v645q66 102 134.5 149.5t166.5 47.5q250 0 250 -318v-524h98v563q0 178 -94 276.5t-248 98.5q-100 0 -169.5 -41t-133.5 -137h-4v637h-98v-1397z" />
<glyph unicode="i" horiz-adv-x="385" d="M143 0h99v920h-99v-920zM143 1229h99v168h-99v-168z" />
<glyph unicode="j" horiz-adv-x="385" d="M-57 -387l22 -84q119 0 196 93t77 276v1022h-99v-1020q0 -158 -48 -220.5t-148 -66.5zM139 1229h99v168h-99v-168z" />
<glyph unicode="k" horiz-adv-x="874" d="M121 0h98v1397h-98v-1397zM233 483l580 -483h135l-581 483l503 437h-129z" />
<glyph unicode="l" horiz-adv-x="385" d="M143 0h99v1397h-99v-1397z" />
<glyph unicode="m" horiz-adv-x="1579" d="M123 0h98v645q66 106 129.5 151.5t158.5 45.5t162.5 -79t67.5 -239v-524h99v627q70 117 132 166t146 49q117 0 178.5 -88t61.5 -232v-522h98v565q0 168 -87 270.5t-232 102.5q-98 0 -174 -52t-146 -169q-88 221 -297 221q-94 0 -162.5 -42t-130.5 -138h-4v162h-98v-920z " />
<glyph unicode="n" horiz-adv-x="1003" d="M127 0h98v645q63 102 133 149.5t179.5 47.5t174 -81t64.5 -237v-524h98v561q0 180 -94 278.5t-248 98.5q-100 0 -169.5 -41t-133.5 -137h-4v160h-98v-920z" />
<glyph unicode="o" horiz-adv-x="1110" d="M86 459q0 -206 133.5 -341.5t335.5 -135.5q200 0 333.5 135.5t133.5 342.5q0 101 -35 188t-99 152q-133 138 -333 138q-199 0 -335 -138q-134 -136 -134 -341zM190 459q0 165 104.5 274t260.5 109t260 -110q103 -109 103 -273q0 -165 -104 -273q-105 -108 -260 -108 t-259 108q-105 109 -105 273z" />
<glyph unicode="p" horiz-adv-x="1044" d="M129 -471h98v522q146 -69 274 -69q93 0 177 36q175 77 246 256q34 88 34 189.5t-33.5 188.5t-95 151.5t-145.5 99.5t-200.5 35t-256.5 -70v52h-98v-1391zM227 147v627q126 68 242 68q166 0 273.5 -108.5t107.5 -278.5t-101.5 -273.5t-267.5 -103.5q-127 0 -254 69z" />
<glyph unicode="q" horiz-adv-x="1044" d="M76 442q0 -205 122 -332q125 -128 342 -128q120 0 277 71v-524h98v1391h-98v-64q-149 82 -266 82t-200 -37t-145 -105q-130 -139 -130 -354zM180 434q0 176 107 291q108 117 264 117q72 0 131 -17.5t135 -64.5v-608q-80 -45 -141.5 -62.5t-138.5 -17.5q-162 0 -259.5 99 t-97.5 263z" />
<glyph unicode="r" horiz-adv-x="681" d="M129 0h98v578q158 264 295 264q39 0 79 -22.5t106 -82.5l57 92q-126 109 -211 109q-158 0 -322 -260h-4v242h-98v-920z" />
<glyph unicode="s" horiz-adv-x="724" d="M84 66q137 -84 270 -84t220.5 73.5t87.5 180.5q0 158 -163 232q-42 19 -128 52t-136.5 69t-50.5 102.5t57.5 111.5t129 45t128 -21.5t134.5 -72.5v106q-137 78 -254 78t-203 -72.5t-86 -179.5q0 -145 158 -218q41 -19 128 -53t139 -72t52 -106.5t-55 -113.5t-157.5 -45 t-270.5 84v-96z" />
<glyph unicode="t" horiz-adv-x="618" d="M-39 840h248v-662q0 -96 63.5 -146t149.5 -50q37 0 106 16q61 18 84 31v94q-95 -45 -178.5 -45t-105 42t-21.5 173v547h258v80h-258v305h-31l-67 -86v-219h-248v-80z" />
<glyph unicode="u" horiz-adv-x="1003" d="M127 350q0 -191 109 -284q99 -84 218 -84t186 38.5t132 131.5h4v-152h98v920h-98v-646q-66 -102 -131 -149t-171 -47t-177.5 70.5t-71.5 203.5v568h-98v-570z" />
<glyph unicode="v" horiz-adv-x="874" d="M0 920l418 -938h61l395 938h-96l-332 -775l-346 775h-100z" />
<glyph unicode="w" horiz-adv-x="1449" d="M0 920l393 -938h45l285 747l283 -747h47l397 938h-98l-320 -750l-280 750h-54l-288 -750l-314 750h-96z" />
<glyph unicode="x" horiz-adv-x="980" d="M12 0h127l361 403l360 -403h127l-422 471l422 449h-127l-360 -381l-361 381h-127l420 -449z" />
<glyph unicode="y" horiz-adv-x="854" d="M12 920l387 -742l-321 -649h100l688 1391h-100l-317 -644l-334 644h-103z" />
<glyph unicode="z" horiz-adv-x="811" d="M20 31l11 -31h757v90h-604l604 799l-8 31h-721v-91h570z" />
<glyph unicode="{" horiz-adv-x="681" d="M100 397q106 -2 149.5 -77.5t43.5 -258.5v-198q0 -174 69.5 -254t223.5 -80v111q-104 0 -142 43t-38 180v198q0 168 -47.5 265.5t-151.5 136.5q104 39 151.5 137t47.5 264v199q0 137 37.5 180t142.5 43v111q-154 0 -223.5 -80t-69.5 -254v-199q0 -182 -43 -257t-150 -79 v-131z" />
<glyph unicode="|" horiz-adv-x="454" d="M176 -512h98v2048h-98v-2048z" />
<glyph unicode="}" horiz-adv-x="681" d="M96 -360v-111q154 0 223.5 80t69.5 254v198q0 182 43 258t150 78v131q-106 4 -149.5 79t-43.5 257v199q0 174 -69.5 254t-223.5 80v-111q104 0 142 -43t38 -180v-199q0 -166 47.5 -264t151.5 -137q-104 -39 -151.5 -136.5t-47.5 -265.5v-198q0 -137 -37.5 -180 t-142.5 -43z" />
<glyph unicode="~" horiz-adv-x="1351" d="M137 596q111 82 168 108.5t112.5 26.5t110 -19.5t143.5 -60.5t147.5 -61.5t113.5 -20.5q111 0 280 121v111q-109 -78 -168 -106.5t-108 -28.5t-101.5 18t-142.5 59q-184 84 -268 84q-121 0 -287 -120v-111z" />
<glyph unicode="&#xa1;" horiz-adv-x="362" d="M115 -453h133l-35 1004h-63zM115 745h133v199h-133v-199z" />
<glyph unicode="&#xa2;" horiz-adv-x="854" d="M86 440q0 -129 53.5 -234.5t163.5 -168.5l-151 -424h90l139 387q86 -18 189.5 -18t222.5 55v96q-121 -55 -246 -55q-73 0 -133 20l256 727q47 -12 102 -41v109q-6 4 -70 25l138 389h-88l-134 -373q-35 4 -69 4q-207 0 -335 -130t-128 -368zM190 455q0 182 98.5 284.5 t252.5 102.5h49l-254 -705q-76 63 -111 138t-35 180z" />
<glyph unicode="&#xa3;" horiz-adv-x="1130" d="M193 -10q191 35 301 35t233 -21l37 -6q96 -16 141 -16q109 0 197 45v108q-95 -55 -203 -55q-29 0 -78 8h-6q-6 0 -34 6q-172 37 -322 26q-41 -3 -133 -11l137 520h246v96h-217q124 436 319 549q74 43 166 43q54 0 110 -17l-49 97q-52 18 -98 18q-360 0 -549 -690h-198 v-96h172z" />
<glyph unicode="&#xa4;" horiz-adv-x="1138" d="M96 293l66 -66l129 129q125 -98 278.5 -98t276.5 98l129 -129l65 66l-129 129q99 121 99 276.5t-99 278.5l129 129l-65 65l-129 -129q-127 99 -278 99t-277 -99l-129 129l-66 -65l129 -129q-98 -122 -98 -273.5t98 -281.5zM225 700q0 141 101 242q100 100 241 100 q143 0 244 -99q100 -98 100 -243q0 -143 -100 -243q-101 -101 -244 -101q-140 0 -241 101t-101 243z" />
<glyph unicode="&#xa5;" horiz-adv-x="1138" d="M4 1466l434 -725h-370v-96h438v-156h-438v-96h438v-393h131v393h434v96h-434v156h434v96h-366l430 725h-142l-418 -725l-423 725h-148z" />
<glyph unicode="&#xa6;" horiz-adv-x="454" d="M176 358v-716h98v716h-98zM176 666h98v716h-98v-716z" />
<glyph unicode="&#xa7;" horiz-adv-x="811" d="M53 551.5q0 -101.5 75 -195.5t209 -211t194.5 -189.5t60.5 -153.5t-55.5 -132t-137.5 -51q-145 0 -174 131h-102q12 -104 88 -162.5t195.5 -58.5t199.5 74.5t80 199.5t-100 240q96 100 134 174t38 174.5t-73 193.5t-206 209t-195.5 192.5t-62.5 156.5t55.5 131t133.5 51 q145 0 176 -135h104q-12 98 -86 161.5t-196.5 63.5t-203.5 -74.5t-81 -195.5q0 -66 22.5 -120t79.5 -128q-92 -92 -132 -168t-40 -177.5zM158 563q0 82 29.5 141.5t101.5 129.5q299 -257 349 -355q26 -53 26 -112q0 -127 -140 -258q-45 47 -150.5 139t-160.5 162.5 t-55 152.5z" />
<glyph unicode="&#xa8;" horiz-adv-x="681" d="M70 1212q0 -37 26.5 -63.5t63.5 -26.5t63.5 27t26.5 63q0 37 -26.5 64t-63.5 27t-63.5 -27t-26.5 -64zM432 1212q0 -37 26.5 -63.5t63.5 -26.5t63.5 27t26.5 63q0 37 -26.5 64t-63.5 27t-63.5 -27t-26.5 -64z" />
<glyph unicode="&#xa9;" horiz-adv-x="1638" d="M55 727q0 -156 59.5 -295t165 -244.5t245 -165t294.5 -59.5q156 0 295 59.5t244.5 165t165 244.5t59.5 295t-59.5 295t-165 244.5t-244.5 165t-295 59.5t-295 -59.5t-244.5 -165t-165 -244.5t-59.5 -295zM152 727q0 135 51 257t144 215t215 144.5t257 51.5t257 -51.5 t215 -144.5t144.5 -215t51.5 -257t-51.5 -257t-144.5 -215t-215 -144.5t-257 -51.5t-257 51.5t-215 144.5t-144 215t-51 257zM440 729q0 -186 109 -313q107 -125 274 -125q125 0 215 73.5t121 188.5l-90 33q-70 -205 -252 -205q-123 0 -197.5 100.5t-74.5 253.5t81 239.5 t201 86.5q156 0 228 -166l96 25q-57 117 -135 171t-187 54q-178 0 -286 -123q-103 -120 -103 -293z" />
<glyph unicode="&#xaa;" horiz-adv-x="575" d="M43 983q0 -61 50 -103t128 -42t166 59q8 -59 55 -59q37 0 131 59v74q-72 -58 -81 -58q-18 0 -19 41v303q0 70 -49 114t-144 44t-204 -61v-80q70 47 107.5 62.5t84.5 15.5q119 0 119 -103v-63q-164 -8 -254 -61.5t-90 -141.5zM131 981q0 68 67.5 106.5t188.5 38.5v-161 q-81 -66 -139.5 -66t-87.5 22.5t-29 59.5z" />
<glyph unicode="&#xab;" d="M39 473l387 -459h123l-385 459l385 459h-123zM475 473l387 -459h123l-385 459l385 459h-123z" />
<glyph unicode="&#xac;" horiz-adv-x="1351" d="M139 899h983v-491h90v581h-1073v-90z" />
<glyph unicode="&#xad;" horiz-adv-x="641" d="M78 414h485v96h-485v-96z" />
<glyph unicode="&#xae;" horiz-adv-x="1638" d="M55 727q0 -156 59.5 -295t165 -244.5t245 -165t294.5 -59.5q156 0 295 59.5t244.5 165t165 244.5t59.5 295t-59.5 295t-165 244.5t-244.5 165t-295 59.5t-295 -59.5t-244.5 -165t-165 -244.5t-59.5 -295zM152 727q0 135 51 257t144 215t215 144.5t257 51.5t257 -51.5 t215 -144.5t144.5 -215t51.5 -257t-51.5 -257t-144.5 -215t-215 -144.5t-257 -51.5t-257 51.5t-215 144.5t-144 215t-51 257zM512 317h98v353h47q74 0 118 -11.5t81 -46.5q65 -60 170 -295h121q-83 199 -117.5 249t-59 69.5t-73.5 48.5q117 20 168 82.5t51 151.5 t-72.5 145.5t-199.5 56.5h-332v-803zM610 750v290h148q135 0 188 -30.5t53 -111.5t-58 -114.5t-198 -33.5h-133z" />
<glyph unicode="&#xaf;" horiz-adv-x="681" d="M68 1171h546v105h-546v-105z" />
<glyph unicode="&#xb0;" horiz-adv-x="819" d="M125 1130q0 -119 83 -202.5t202 -83.5t202.5 84t83.5 202q0 119 -83.5 202t-202.5 83t-202 -83t-83 -202zM207 1128q0 84 59.5 144.5t143.5 60.5t144 -60.5t60 -144.5t-60 -143t-144 -59t-143.5 59t-59.5 143z" />
<glyph unicode="&#xb1;" horiz-adv-x="1351" d="M139 0h1073v90h-1073v-90zM139 674h492v-492h90v492h491v90h-491v491h-90v-491h-492v-90z" />
<glyph unicode="&#xb2;" horiz-adv-x="641" d="M61 680h555v63h-376q168 166 232.5 274.5t64.5 191.5t-74 144.5t-179 61.5t-206 -69v-84q72 57 110.5 74.5t100 17.5t112 -42t50.5 -106q0 -94 -104.5 -234.5t-285.5 -291.5z" />
<glyph unicode="&#xb3;" horiz-adv-x="641" d="M90 709q94 -39 204 -39t183.5 60.5t73.5 150.5q0 141 -143 182v4q133 43 133 162q0 82 -72 134t-183 52t-188 -51v-70q96 60 177.5 60t131.5 -37t50 -94t-55.5 -93t-149.5 -36v-64q145 0 196 -76q19 -30 19 -86.5t-49 -96.5t-141 -40t-187 43v-65z" />
<glyph unicode="&#xb4;" horiz-adv-x="681" d="M313 1067h68l311 319h-166z" />
<glyph unicode="&#xb5;" horiz-adv-x="1138" d="M207 -362h98v464q61 -66 121.5 -93t147.5 -27t150.5 27.5t121.5 92.5v-102h98v920h-98v-506q0 -182 -73 -262t-207 -80q-261 0 -261 370v478h-98v-1282z" />
<glyph unicode="&#xb6;" horiz-adv-x="1331" d="M100 1050q0 -189 122 -307t329 -118v-1033h131v1735h266v-1735h127v1735h197v139h-692q-217 0 -348.5 -113.5t-131.5 -302.5z" />
<glyph unicode="&#xb7;" horiz-adv-x="575" d="M178 709q0 -45 33 -78t78 -33t77.5 33t32.5 78t-32.5 77.5t-77.5 32.5t-78 -32.5t-33 -77.5z" />
<glyph unicode="&#xb8;" horiz-adv-x="681" d="M217 -348q45 -10 110.5 -10t123 41t57.5 103q0 122 -127 142l25 88h-62l-43 -143q127 -4 127 -82t-133 -78l-68 4z" />
<glyph unicode="&#xb9;" horiz-adv-x="641" d="M276 680h86v727h-86v-727z" />
<glyph unicode="&#xba;" horiz-adv-x="724" d="M51 1127q0 -126 89 -207.5t225 -81.5t222.5 78.5t86.5 204.5t-90 210t-224.5 84t-221.5 -81t-87 -207zM143 1125q0 97 61.5 160t156.5 63t158 -64t63 -159t-61.5 -157.5t-158.5 -62.5q-96 0 -157.5 61.5t-61.5 158.5z" />
<glyph unicode="&#xbb;" d="M39 14h123l387 459l-387 459h-123l385 -459zM475 14h123l387 459l-387 459h-123l385 -459z" />
<glyph unicode="&#xbc;" horiz-adv-x="1705" d="M127 -55h80l1077 1470h-80zM289 680h86v727h-86v-727zM844 274h375v-274h86v274h114v58h-114v405h-41l-420 -436v-27zM961 332l258 268v-268h-258z" />
<glyph unicode="&#xbd;" horiz-adv-x="1705" d="M127 -55h80l1077 1470h-80zM289 680h86v727h-86v-727zM971 0h555v63h-377q168 166 232.5 274.5t64.5 191.5t-74 144.5t-179 61.5t-206 -69v-84q72 57 111 74.5t100.5 17.5t111.5 -42t50 -106q0 -94 -104.5 -234t-284.5 -292z" />
<glyph unicode="&#xbe;" horiz-adv-x="1705" d="M137 709q94 -39 204 -39t183.5 60.5t73.5 150.5q0 141 -143 182v4q133 43 133 162q0 82 -72 134t-183 52t-188 -51v-70q96 60 177.5 60t131.5 -37t50 -94t-55.5 -93t-149.5 -36v-64q145 0 195 -76q20 -30 20 -86.5t-49 -96.5t-141 -40t-187 43v-65zM233 -55h80l1078 1470 h-80zM950 274h375v-274h86v274h115v58h-115v405h-41l-420 -436v-27zM1067 332l258 268v-268h-258z" />
<glyph unicode="&#xbf;" horiz-adv-x="575" d="M45 -192.5q0 -118.5 70.5 -198.5t185.5 -80q67 0 139 37l47 160h-20q-66 -109 -164 -109q-63 0 -108 56.5t-45 139.5t31.5 155.5t90.5 167.5t87 155.5t28 141.5t-80 173l-37 -28q39 -68 39 -129t-27.5 -117t-86.5 -137q-72 -106 -111 -187.5t-39 -200zM231 745h134v199 h-134v-199z" />
<glyph unicode="&#xc0;" horiz-adv-x="1366" d="M8 0h113l221 483h682l221 -483h113l-645 1407h-60zM383 573l299 658l301 -658h-600zM500 1833l311 -320h68l-213 320h-166z" />
<glyph unicode="&#xc1;" horiz-adv-x="1366" d="M8 0h113l221 483h682l221 -483h113l-645 1407h-60zM383 573l299 658l301 -658h-600zM655 1513h68l311 320h-166z" />
<glyph unicode="&#xc2;" horiz-adv-x="1366" d="M8 0h113l221 483h682l221 -483h113l-645 1407h-60zM383 573l299 658l301 -658h-600zM401 1495h78l205 223l203 -223h78l-217 336h-125z" />
<glyph unicode="&#xc3;" horiz-adv-x="1366" d="M8 0h113l221 483h682l221 -483h113l-645 1407h-60zM348 1569h66q12 98 86 98q37 0 140 -39t140 -50t70 -11q74 0 121 51t47 145h-62q-8 -53 -29.5 -76.5t-64.5 -23.5t-147 43l-19 8q-108 49 -186 49t-120 -56t-42 -138zM383 573l299 658l301 -658h-600z" />
<glyph unicode="&#xc4;" horiz-adv-x="1366" d="M8 0h113l221 483h682l221 -483h113l-645 1407h-60zM383 573l299 658l301 -658h-600zM412 1659q0 -37 26.5 -63.5t63.5 -26.5t63.5 26.5t26.5 63.5t-26.5 63.5t-63.5 26.5t-63.5 -26.5t-26.5 -63.5zM774 1659q0 -37 26.5 -63.5t63.5 -26.5t63.5 26.5t26.5 63.5t-26.5 63.5 t-63.5 26.5t-63.5 -26.5t-26.5 -63.5z" />
<glyph unicode="&#xc5;" horiz-adv-x="1366" d="M8 0h113l221 483h682l221 -483h113l-645 1407h-60zM383 573l299 658l301 -658h-600zM506 1661q0 -74 52 -126t126 -52t125 52t51 126t-51 125t-125 51t-126 -51t-52 -125zM561 1661q0 51 36 86t87 35t86 -35t35 -86t-35 -87t-86 -36t-87 36t-36 87z" />
<glyph unicode="&#xc6;" horiz-adv-x="1771" d="M-29 0h119l410 659h409v-659h785v90h-676v569h643v91h-643v557h657v90h-831zM559 750l346 571h4v-571h-350z" />
<glyph unicode="&#xc7;" horiz-adv-x="1386" d="M100 705.5q0 -146.5 46.5 -268.5t132.5 -216q178 -194 456 -231l-35 -117q127 -4 127 -82t-133 -78l-67 4l-11 -65q45 -10 111 -10t123 41t57 103q0 122 -127 142l17 58q14 -4 47 -4q250 0 495 131v112q-269 -143 -497 -143q-273 0 -449 172t-176 442q0 266 174 442 q175 177 426.5 177t507.5 -135v118q-254 117 -491 117q-143 0 -275.5 -52t-236 -148.5t-163 -229.5t-59.5 -279.5z" />
<glyph unicode="&#xc8;" horiz-adv-x="1003" d="M164 0h778v90h-670v567h637v91h-637v559h654v90h-762v-1397zM319 1833l312 -320h67l-213 320h-166z" />
<glyph unicode="&#xc9;" horiz-adv-x="1003" d="M164 0h778v90h-670v567h637v91h-637v559h654v90h-762v-1397zM475 1513h68l311 320h-166z" />
<glyph unicode="&#xca;" horiz-adv-x="1003" d="M164 0h778v90h-670v567h637v91h-637v559h654v90h-762v-1397zM221 1495h78l205 223l203 -223h77l-217 336h-125z" />
<glyph unicode="&#xcb;" horiz-adv-x="1003" d="M164 0h778v90h-670v567h637v91h-637v559h654v90h-762v-1397zM231 1659q0 -37 27 -63.5t64 -26.5t63.5 26.5t26.5 63.5t-26.5 63.5t-63.5 26.5t-64 -26.5t-27 -63.5zM594 1659q0 -37 26.5 -63.5t63.5 -26.5t63.5 26.5t26.5 63.5t-26.5 63.5t-63.5 26.5t-63.5 -26.5 t-26.5 -63.5z" />
<glyph unicode="&#xcc;" horiz-adv-x="425" d="M-51 1833l311 -320h68l-213 320h-166zM160 0h108v1397h-108v-1397z" />
<glyph unicode="&#xcd;" horiz-adv-x="425" d="M160 0h108v1397h-108v-1397zM186 1513h68l311 320h-166z" />
<glyph unicode="&#xce;" horiz-adv-x="425" d="M-68 1495h78l205 223l203 -223h78l-217 336h-125zM160 0h108v1397h-108v-1397z" />
<glyph unicode="&#xcf;" horiz-adv-x="425" d="M-57 1659q0 -37 26.5 -63.5t63.5 -26.5t63.5 26.5t26.5 63.5t-26.5 63.5t-63.5 26.5t-63.5 -26.5t-26.5 -63.5zM160 0h108v1397h-108v-1397zM305 1659q0 -37 26.5 -63.5t63.5 -26.5t63.5 26.5t26.5 63.5t-26.5 63.5t-63.5 26.5t-63.5 -26.5t-26.5 -63.5z" />
<glyph unicode="&#xd0;" horiz-adv-x="1515" d="M-47 655h209v-655h508q199 0 343 60.5t232 161.5q168 194 168 476q0 280 -164 472q-88 102 -237.5 164.5t-360.5 62.5h-489v-652h-209v-90zM270 90v565h453v90h-453v562h387q286 0 462 -170q177 -171 177 -439q0 -280 -188 -449q-177 -159 -444 -159h-394z" />
<glyph unicode="&#xd1;" horiz-adv-x="1579" d="M160 0h108v1221l1061 -1221h90v1397h-108v-1221l-1059 1221h-92v-1397zM455 1569h65q12 98 86 98q43 0 168 -49l113 -40q37 -11 69 -11q74 0 121 51t47 145h-61q-8 -53 -29.5 -76.5t-64.5 -23.5q-51 0 -136 38q-139 62 -216.5 62t-119.5 -56t-42 -138z" />
<glyph unicode="&#xd2;" horiz-adv-x="1685" d="M104 698q0 -147 56.5 -278t157.5 -230q212 -208 524 -208q313 0 526 208q102 99 158.5 230t56.5 278t-56.5 278.5t-157.5 231t-237.5 153.5t-289.5 54q-311 0 -524 -207q-214 -208 -214 -510zM221 699q0 128 47 241t133 197q182 178 445 178q261 0 441 -178 q179 -177 179 -439q0 -261 -179 -438q-180 -178 -441 -178q-263 0 -445 178q-86 84 -133 197.5t-47 241.5zM659 1833l312 -320h67l-213 320h-166z" />
<glyph unicode="&#xd3;" horiz-adv-x="1685" d="M104 698q0 -147 56.5 -278t157.5 -230q212 -208 524 -208q313 0 526 208q102 99 158.5 230t56.5 278t-56.5 278.5t-157.5 231t-237.5 153.5t-289.5 54q-311 0 -524 -207q-214 -208 -214 -510zM221 699q0 128 47 241t133 197q182 178 445 178q261 0 441 -178 q179 -177 179 -439q0 -261 -179 -438q-180 -178 -441 -178q-263 0 -445 178q-86 84 -133 197.5t-47 241.5zM815 1513h68l311 320h-166z" />
<glyph unicode="&#xd4;" horiz-adv-x="1685" d="M104 698q0 -147 56.5 -278t157.5 -230q212 -208 524 -208q313 0 526 208q102 99 158.5 230t56.5 278t-56.5 278.5t-157.5 231t-237.5 153.5t-289.5 54q-311 0 -524 -207q-214 -208 -214 -510zM221 699q0 128 47 241t133 197q182 178 445 178q261 0 441 -178 q179 -177 179 -439q0 -261 -179 -438q-180 -178 -441 -178q-263 0 -445 178q-86 84 -133 197.5t-47 241.5zM561 1495h78l205 223l203 -223h77l-217 336h-125z" />
<glyph unicode="&#xd5;" horiz-adv-x="1685" d="M104 698q0 -147 56.5 -278t157.5 -230q212 -208 524 -208q313 0 526 208q102 99 158.5 230t56.5 278t-56.5 278.5t-157.5 231t-237.5 153.5t-289.5 54q-311 0 -524 -207q-214 -208 -214 -510zM221 699q0 128 47 241t133 197q182 178 445 178q261 0 441 -178 q179 -177 179 -439q0 -261 -179 -438q-180 -178 -441 -178q-263 0 -445 178q-86 84 -133 197.5t-47 241.5zM508 1569h65q12 98 86 98q43 0 168 -49l113 -40q37 -11 70 -11q74 0 120 53q47 49 48 143h-62q-8 -53 -29.5 -76.5t-64.5 -23.5q-51 0 -136 38q-139 62 -216.5 62 t-119.5 -56t-42 -138z" />
<glyph unicode="&#xd6;" horiz-adv-x="1685" d="M104 698q0 -147 56.5 -278t157.5 -230q212 -208 524 -208q313 0 526 208q102 99 158.5 230t56.5 278t-56.5 278.5t-157.5 231t-237.5 153.5t-289.5 54q-311 0 -524 -207q-214 -208 -214 -510zM221 699q0 128 47 241t133 197q182 178 445 178q261 0 441 -178 q179 -177 179 -439q0 -261 -179 -438q-180 -178 -441 -178q-263 0 -445 178q-86 84 -133 197.5t-47 241.5zM571 1659q0 -37 27 -63.5t64 -26.5t63.5 26.5t26.5 63.5t-26.5 63.5t-63.5 26.5t-64 -26.5t-27 -63.5zM934 1659q0 -37 26.5 -63.5t63.5 -26.5t63.5 26.5t26.5 63.5 t-26.5 63.5t-63.5 26.5t-63.5 -26.5t-26.5 -63.5z" />
<glyph unicode="&#xd7;" horiz-adv-x="1351" d="M264 375l66 -66l346 346l346 -346l65 66l-346 346l346 346l-65 66l-346 -347l-346 347l-66 -66l346 -346z" />
<glyph unicode="&#xd8;" horiz-adv-x="1685" d="M104 699q0 -301 220 -517l-131 -145l77 -60l129 144q204 -139 443 -139q313 0 526 208q102 99 158.5 230t56.5 278q0 303 -213 506l137 152l-75 51l-129 -143q-206 151 -461 151q-311 0 -524 -207q-214 -208 -214 -509zM221 698q0 263 180 439q182 178 445 178 q106 0 208.5 -34t176.5 -95l-832 -922q-178 178 -178 434zM471 201l829 923q166 -190 166 -426q0 -261 -179 -438q-180 -178 -441 -178q-212 0 -375 119z" />
<glyph unicode="&#xd9;" horiz-adv-x="1429" d="M131 610q0 -303 171 -470q162 -158 413 -158q244 0 403 150q182 171 182 503v762h-108v-768q0 -277 -148 -421q-130 -126 -329 -126q-200 0 -333 131q-142 140 -142 401v783h-109v-787zM532 1833l312 -320h67l-213 320h-166z" />
<glyph unicode="&#xda;" horiz-adv-x="1429" d="M131 610q0 -303 171 -470q162 -158 413 -158q244 0 403 150q182 171 182 503v762h-108v-768q0 -277 -148 -421q-130 -126 -329 -126q-200 0 -333 131q-142 140 -142 401v783h-109v-787zM688 1513h68l311 320h-166z" />
<glyph unicode="&#xdb;" horiz-adv-x="1429" d="M131 610q0 -303 171 -470q162 -158 413 -158q244 0 403 150q182 171 182 503v762h-108v-768q0 -277 -148 -421q-130 -126 -329 -126q-200 0 -333 131q-142 140 -142 401v783h-109v-787zM434 1495h78l205 223l203 -223h77l-217 336h-125z" />
<glyph unicode="&#xdc;" horiz-adv-x="1429" d="M131 610q0 -303 171 -470q162 -158 413 -158q244 0 403 150q182 171 182 503v762h-108v-768q0 -277 -148 -421q-130 -126 -329 -126q-200 0 -333 131q-142 140 -142 401v783h-109v-787zM444 1659q0 -37 27 -63.5t64 -26.5t63.5 26.5t26.5 63.5t-26.5 63.5t-63.5 26.5 t-64 -26.5t-27 -63.5zM807 1659q0 -37 26.5 -63.5t63.5 -26.5t63.5 26.5t26.5 63.5t-26.5 63.5t-63.5 26.5t-63.5 -26.5t-26.5 -63.5z" />
<glyph unicode="&#xdd;" horiz-adv-x="1193" d="M0 1397l543 -647v-750h108v750l543 647h-131l-465 -553l-467 553h-131zM569 1513h68l311 320h-166z" />
<glyph unicode="&#xde;" horiz-adv-x="1044" d="M160 0h108v328h267q251 0 366 116q100 101 100 261.5t-111.5 263t-344.5 102.5h-277v326h-108v-1397zM268 418v563h273q174 0 259 -79t85 -204t-86 -202.5t-271 -77.5h-260z" />
<glyph unicode="&#xdf;" d="M127 0h98v979q0 258 145 327q56 27 136 27q123 0 195.5 -70.5t72.5 -182t-55 -185.5t-160 -74v-92q131 -8 204 -94t73 -232.5t-73 -235.5t-194 -89q-53 0 -123 24v-102q70 -18 127 -18q160 0 263.5 118.5t103.5 305.5q0 274 -246 370q93 38 144 136q41 81 41 165 q0 147 -104.5 242.5t-276.5 95.5t-271.5 -109.5t-99.5 -308.5v-997z" />
<glyph unicode="&#xe0;" horiz-adv-x="874" d="M74 210q0 -91 71.5 -159.5t176.5 -68.5q143 0 288 114q6 -70 19.5 -92t45.5 -22q59 0 187 96v82q-101 -82 -131 -82q-23 0 -22 47v573q0 131 -98 190q-82 50 -206.5 50t-279.5 -98v-101q84 63 146.5 90t134.5 27q205 0 204 -188v-117q-370 -14 -492 -187 q-44 -63 -44 -154zM172 215q0 115 122 184.5t316 69.5v-287q-72 -66 -131 -92.5t-131 -26.5t-124 43.5t-52 108.5zM254 1386l311 -319h68l-213 319h-166z" />
<glyph unicode="&#xe1;" horiz-adv-x="874" d="M74 210q0 -91 71.5 -159.5t176.5 -68.5q143 0 288 114q6 -70 19.5 -92t45.5 -22q59 0 187 96v82q-101 -82 -131 -82q-23 0 -22 47v573q0 131 -98 190q-82 50 -206.5 50t-279.5 -98v-101q84 63 146.5 90t134.5 27q205 0 204 -188v-117q-370 -14 -492 -187 q-44 -63 -44 -154zM172 215q0 115 122 184.5t316 69.5v-287q-72 -66 -131 -92.5t-131 -26.5t-124 43.5t-52 108.5zM410 1067h67l311 319h-165z" />
<glyph unicode="&#xe2;" horiz-adv-x="874" d="M74 210q0 -91 71.5 -159.5t176.5 -68.5q143 0 288 114q6 -70 19.5 -92t45.5 -22q59 0 187 96v82q-101 -82 -131 -82q-23 0 -22 47v573q0 131 -98 190q-82 50 -206.5 50t-279.5 -98v-101q84 63 146.5 90t134.5 27q205 0 204 -188v-117q-370 -14 -492 -187 q-44 -63 -44 -154zM156 1049h77l205 223l203 -223h78l-217 335h-125zM172 215q0 115 122 184.5t316 69.5v-287q-72 -66 -131 -92.5t-131 -26.5t-124 43.5t-52 108.5z" />
<glyph unicode="&#xe3;" horiz-adv-x="874" d="M74 210q0 -91 71.5 -159.5t176.5 -68.5q143 0 288 114q6 -70 19.5 -92t45.5 -22q59 0 187 96v82q-101 -82 -131 -82q-23 0 -22 47v573q0 131 -98 190q-82 50 -206.5 50t-279.5 -98v-101q84 63 146.5 90t134.5 27q205 0 204 -188v-117q-370 -14 -492 -187 q-44 -63 -44 -154zM102 1122h66q12 98 86 99q35 0 139 -39.5t141 -50.5t70 -11q74 0 121 54q47 49 47 143h-61q-8 -53 -30 -76.5t-65 -23.5q-50 0 -135 38q-139 62 -217 62t-120 -56.5t-42 -138.5zM172 215q0 115 122 184.5t316 69.5v-287q-72 -66 -131 -92.5t-131 -26.5 t-124 43.5t-52 108.5z" />
<glyph unicode="&#xe4;" horiz-adv-x="874" d="M74 210q0 -91 71.5 -159.5t176.5 -68.5q143 0 288 114q6 -70 19.5 -92t45.5 -22q59 0 187 96v82q-101 -82 -131 -82q-23 0 -22 47v573q0 131 -98 190q-82 50 -206.5 50t-279.5 -98v-101q84 63 146.5 90t134.5 27q205 0 204 -188v-117q-370 -14 -492 -187 q-44 -63 -44 -154zM166 1212q0 -37 26.5 -63.5t63.5 -26.5t63.5 27t26.5 63q0 37 -26.5 64t-63.5 27t-63.5 -27t-26.5 -64zM172 215q0 115 122 184.5t316 69.5v-287q-72 -66 -131 -92.5t-131 -26.5t-124 43.5t-52 108.5zM528 1212q0 -37 27 -63.5t63 -26.5q37 0 64 27t27 63 q0 37 -27 64t-64 27t-63.5 -27t-26.5 -64z" />
<glyph unicode="&#xe5;" horiz-adv-x="874" d="M74 210q0 -91 71.5 -159.5t176.5 -68.5q143 0 288 114q6 -70 19.5 -92t45.5 -22q59 0 187 96v82q-101 -82 -131 -82q-23 0 -22 47v573q0 131 -98 190q-82 50 -206.5 50t-279.5 -98v-101q84 63 146.5 90t134.5 27q205 0 204 -188v-117q-370 -14 -492 -187 q-44 -63 -44 -154zM172 215q0 115 122 184.5t316 69.5v-287q-72 -66 -131 -92.5t-131 -26.5t-124 43.5t-52 108.5zM260 1214q0 -74 52.5 -126t125.5 -52q74 0 125 52.5t51 125.5q0 74 -51 125.5t-125 51.5t-126 -51.5t-52 -125.5zM315 1214q0 51 36 86t87 35t86 -34.5 t35 -86.5q0 -51 -35 -86.5t-86 -35.5t-87 35.5t-36 86.5z" />
<glyph unicode="&#xe6;" horiz-adv-x="1366" d="M68 205q0 -88 69.5 -155.5t162.5 -67.5t172 32.5t187 110.5q119 -143 291 -143t340 104v113q-166 -121 -327 -121q-109 0 -187 73.5t-78 225.5v121h592q0 193 -96 316.5t-258 123.5q-80 0 -138.5 -32t-117.5 -109q-45 76 -102.5 108.5t-147.5 32.5q-170 0 -319 -102v-103 q164 115 305 115q184 0 184 -203v-67q-283 -72 -372 -124.5t-124.5 -106.5t-35.5 -142zM162 215q0 98 114.5 164.5t323.5 118.5v-316q-160 -119 -266 -119q-74 0 -123 43.5t-49 108.5zM698 578q4 117 70 190.5t166 73.5t172 -72t76 -192h-484z" />
<glyph unicode="&#xe7;" horiz-adv-x="854" d="M86 463q0 -199 95 -322t257 -151l-35 -117q127 -4 127 -82t-133 -78l-67 4l-11 -65q45 -10 111 -10t123 41t57 103q0 122 -127 142l17 58q12 -4 37 -4q117 0 256 47v102q-130 -53 -248 -53q-162 0 -258.5 102.5t-96.5 275.5t96.5 279.5t250.5 106.5q102 0 239 -58v109 q-140 45 -241 45t-183 -36t-141 -102q-125 -138 -125 -337z" />
<glyph unicode="&#xe8;" horiz-adv-x="980" d="M82 471q0 -211 129 -351q126 -138 325.5 -138t358.5 122v111q-167 -137 -342 -137q-150 0 -259 105q-110 106 -110 263v23q2 14 2 25h725q0 215 -127 336q-115 108 -280 108q-183 0 -302 -132q-120 -133 -120 -335zM199 573q27 125 108.5 197t196.5 72q240 0 291 -269 h-596zM307 1386l311 -319h68l-213 319h-166z" />
<glyph unicode="&#xe9;" horiz-adv-x="980" d="M82 471q0 -211 129 -351q126 -138 325.5 -138t358.5 122v111q-167 -137 -342 -137q-150 0 -259 105q-110 106 -110 263v23q2 14 2 25h725q0 215 -127 336q-115 108 -280 108q-183 0 -302 -132q-120 -133 -120 -335zM199 573q27 125 108.5 197t196.5 72q240 0 291 -269 h-596zM463 1067h67l312 319h-166z" />
<glyph unicode="&#xea;" horiz-adv-x="980" d="M82 471q0 -211 129 -351q126 -138 325.5 -138t358.5 122v111q-167 -137 -342 -137q-150 0 -259 105q-110 106 -110 263v23q2 14 2 25h725q0 215 -127 336q-115 108 -280 108q-183 0 -302 -132q-120 -133 -120 -335zM199 573q27 125 108.5 197t196.5 72q240 0 291 -269 h-596zM209 1049h78l205 223l202 -223h78l-217 335h-125z" />
<glyph unicode="&#xeb;" horiz-adv-x="980" d="M82 471q0 -211 129 -351q126 -138 325.5 -138t358.5 122v111q-167 -137 -342 -137q-150 0 -259 105q-110 106 -110 263v23q2 14 2 25h725q0 215 -127 336q-115 108 -280 108q-183 0 -302 -132q-120 -133 -120 -335zM199 573q27 125 108.5 197t196.5 72q240 0 291 -269 h-596zM219 1212q0 -37 26.5 -63.5t63.5 -26.5t63.5 27t26.5 63q0 37 -26.5 64t-63.5 27t-63.5 -27t-26.5 -64zM582 1212q0 -37 26.5 -63.5t63.5 -26.5t63.5 27t26.5 63q0 37 -26.5 64t-63.5 27t-63.5 -27t-26.5 -64z" />
<glyph unicode="&#xec;" horiz-adv-x="385" d="M-72 1386l312 -319h67l-213 319h-166zM143 0h99v920h-99v-920z" />
<glyph unicode="&#xed;" horiz-adv-x="385" d="M143 0h99v920h-99v-920zM166 1067h67l312 319h-166z" />
<glyph unicode="&#xee;" horiz-adv-x="385" d="M-88 1049h78l205 223l202 -223h78l-217 335h-125zM143 0h99v920h-99v-920z" />
<glyph unicode="&#xef;" horiz-adv-x="385" d="M-78 1212q0 -37 26.5 -63.5t63.5 -26.5t63.5 27t26.5 63q0 37 -26.5 64t-63.5 27t-63.5 -27t-26.5 -64zM143 0h99v920h-99v-920zM285 1212q0 -37 26.5 -63.5t63.5 -26.5t63.5 27t26.5 63q0 37 -26.5 64t-63.5 27t-63.5 -27t-26.5 -64z" />
<glyph unicode="&#xf0;" horiz-adv-x="1144" d="M78 453q0 -199 140 -335t359 -136t357.5 144t138.5 374q0 450 -321 721l237 108l-31 68l-272 -125q-109 76 -242 125l-38 -74q109 -43 184 -96l-256 -119l31 -68l292 138q109 -86 182.5 -192.5t106.5 -211.5l-4 -4q-76 90 -163 129t-197.5 39t-201.5 -36t-158 -102 q-144 -142 -144 -347zM172 453q0 169 116 287q114 116 287.5 116t283.5 -108.5t110 -285.5t-106.5 -288t-284.5 -111q-175 0 -292 111q-114 109 -114 279z" />
<glyph unicode="&#xf1;" horiz-adv-x="1003" d="M127 0h98v645q63 102 133 149.5t179.5 47.5t174 -81t64.5 -237v-524h98v561q0 180 -94 278.5t-248 98.5q-100 0 -169.5 -41t-133.5 -137h-4v160h-98v-920zM168 1122h65q12 98 86 99q46 0 168 -50l113 -40q37 -11 70 -11q74 0 121 54q47 49 47 143h-62q-8 -53 -29.5 -76.5 t-64.5 -23.5t-147 43l-19 8q-108 49 -186 49t-120 -56.5t-42 -138.5z" />
<glyph unicode="&#xf2;" horiz-adv-x="1110" d="M86 459q0 -206 133.5 -341.5t335.5 -135.5q200 0 333.5 135.5t133.5 342.5q0 101 -35 188t-99 152q-133 138 -333 138q-199 0 -335 -138q-134 -136 -134 -341zM190 459q0 165 104.5 274t260.5 109t260 -110q103 -109 103 -273q0 -165 -104 -273q-105 -108 -260 -108 t-259 108q-105 109 -105 273zM373 1386l311 -319h68l-213 319h-166z" />
<glyph unicode="&#xf3;" horiz-adv-x="1110" d="M86 459q0 -206 133.5 -341.5t335.5 -135.5q200 0 333.5 135.5t133.5 342.5q0 101 -35 188t-99 152q-133 138 -333 138q-199 0 -335 -138q-134 -136 -134 -341zM190 459q0 165 104.5 274t260.5 109t260 -110q103 -109 103 -273q0 -165 -104 -273q-105 -108 -260 -108 t-259 108q-105 109 -105 273zM528 1067h68l311 319h-166z" />
<glyph unicode="&#xf4;" horiz-adv-x="1110" d="M86 459q0 -206 133.5 -341.5t335.5 -135.5q200 0 333.5 135.5t133.5 342.5q0 101 -35 188t-99 152q-133 138 -333 138q-199 0 -335 -138q-134 -136 -134 -341zM190 459q0 165 104.5 274t260.5 109t260 -110q103 -109 103 -273q0 -165 -104 -273q-105 -108 -260 -108 t-259 108q-105 109 -105 273zM274 1049h78l205 223l203 -223h78l-217 335h-125z" />
<glyph unicode="&#xf5;" horiz-adv-x="1110" d="M86 459q0 -206 133.5 -341.5t335.5 -135.5q200 0 333.5 135.5t133.5 342.5q0 101 -35 188t-99 152q-133 138 -333 138q-199 0 -335 -138q-134 -136 -134 -341zM190 459q0 165 104.5 274t260.5 109t260 -110q103 -109 103 -273q0 -165 -104 -273q-105 -108 -260 -108 t-259 108q-105 109 -105 273zM221 1122h66q12 98 86 99q35 0 139 -39.5t141 -50.5t70 -11q74 0 121 54q47 49 47 143h-62q-8 -53 -29.5 -76.5t-64.5 -23.5t-147 43l-19 8q-108 49 -186 49t-120 -56.5t-42 -138.5z" />
<glyph unicode="&#xf6;" horiz-adv-x="1110" d="M86 459q0 -206 133.5 -341.5t335.5 -135.5q200 0 333.5 135.5t133.5 342.5q0 101 -35 188t-99 152q-133 138 -333 138q-199 0 -335 -138q-134 -136 -134 -341zM190 459q0 165 104.5 274t260.5 109t260 -110q103 -109 103 -273q0 -165 -104 -273q-105 -108 -260 -108 t-259 108q-105 109 -105 273zM285 1212q0 -37 26.5 -63.5t63.5 -26.5t63.5 27t26.5 63q0 37 -26.5 64t-63.5 27t-63.5 -27t-26.5 -64zM647 1212q0 -37 26.5 -63.5t63.5 -26.5t63.5 27t26.5 63q0 37 -26.5 64t-63.5 27t-63.5 -27t-26.5 -64z" />
<glyph unicode="&#xf7;" horiz-adv-x="1351" d="M139 674h1073v90h-1073v-90zM596 379q0 -35 22.5 -57.5t57.5 -22.5t57.5 22.5t22.5 57.5t-22.5 57.5t-57.5 22.5t-57.5 -22.5t-22.5 -57.5zM596 1059q0 -35 22.5 -57.5t57.5 -22.5t57.5 22.5t22.5 57.5t-22.5 57.5t-57.5 22.5t-57.5 -22.5t-22.5 -57.5z" />
<glyph unicode="&#xf8;" horiz-adv-x="1110" d="M86 0l68 -61l116 135q122 -92 285 -92q200 0 333.5 135.5t133.5 335t-125 340.5l111 127l-64 51l-108 -123q-119 90 -281 90q-199 0 -335 -138q-134 -136 -134 -336t119 -329zM190 459q0 165 104.5 274t244 109t229.5 -70l-496 -561q-82 111 -82 248zM338 150l489 563 q91 -95 91 -254q0 -165 -104 -273q-105 -108 -259 -108q-70 0 -115 17.5t-102 54.5z" />
<glyph unicode="&#xf9;" horiz-adv-x="1003" d="M127 350q0 -191 109 -284q99 -84 218 -84t186 38.5t132 131.5h4v-152h98v920h-98v-646q-66 -102 -131 -149t-171 -47t-177.5 70.5t-71.5 203.5v568h-98v-570zM319 1386l312 -319h67l-213 319h-166z" />
<glyph unicode="&#xfa;" horiz-adv-x="1003" d="M127 350q0 -191 109 -284q99 -84 218 -84t186 38.5t132 131.5h4v-152h98v920h-98v-646q-66 -102 -131 -149t-171 -47t-177.5 70.5t-71.5 203.5v568h-98v-570zM475 1067h68l311 319h-166z" />
<glyph unicode="&#xfb;" horiz-adv-x="1003" d="M127 350q0 -191 109 -284q99 -84 218 -84t186 38.5t132 131.5h4v-152h98v920h-98v-646q-66 -102 -131 -149t-171 -47t-177.5 70.5t-71.5 203.5v568h-98v-570zM221 1049h78l205 223l203 -223h77l-217 335h-125z" />
<glyph unicode="&#xfc;" horiz-adv-x="1003" d="M127 350q0 -191 109 -284q99 -84 218 -84t186 38.5t132 131.5h4v-152h98v920h-98v-646q-66 -102 -131 -149t-171 -47t-177.5 70.5t-71.5 203.5v568h-98v-570zM231 1212q0 -37 27 -63.5t64 -26.5t63.5 27t26.5 63q0 37 -26.5 64t-63.5 27t-64 -27t-27 -64zM594 1212 q0 -37 26.5 -63.5t63.5 -26.5t63.5 27t26.5 63q0 37 -26.5 64t-63.5 27t-63.5 -27t-26.5 -64z" />
<glyph unicode="&#xfd;" horiz-adv-x="854" d="M12 920l387 -742l-321 -649h100l688 1391h-100l-317 -644l-334 644h-103zM399 1067h68l311 319h-166z" />
<glyph unicode="&#xfe;" horiz-adv-x="1044" d="M129 -471h98v522q251 -119 451 -33q175 77 246 256q34 88 34 189.5t-33.5 188.5t-95 151.5t-145.5 99.5t-200.5 35t-256.5 -70v529h-98v-1868zM227 147v627q126 68 242 68q166 0 273.5 -108.5t107.5 -278.5t-101.5 -273.5t-267.5 -103.5q-127 0 -254 69z" />
<glyph unicode="&#xff;" horiz-adv-x="854" d="M12 920l387 -742l-321 -649h100l688 1391h-100l-317 -644l-334 644h-103zM156 1212q0 -37 26.5 -63.5t63.5 -26.5t63.5 27t26.5 63q0 37 -26.5 64t-63.5 27t-63.5 -27t-26.5 -64zM518 1212q0 -37 26.5 -63.5t63.5 -26.5t63.5 27t26.5 63q0 37 -26.5 64t-63.5 27 t-63.5 -27t-26.5 -64z" />
<glyph unicode="&#x152;" horiz-adv-x="1835" d="M84 696q0 -271 183 -472q93 -103 236.5 -163.5t332.5 -60.5h921v90h-674v565h646v90h-646v562h660v90h-912q-182 0 -323 -59.5t-236 -159.5q-188 -201 -188 -482zM201 696q0 239 154 414q79 90 205 143.5t294 53.5h121v-1217h-117q-162 0 -288 51.5t-208 138.5 q-161 172 -161 416z" />
<glyph unicode="&#x153;" horiz-adv-x="1705" d="M84 459q0 -220 132 -351q129 -126 321 -126q119 0 213 51t180 164q51 -111 132 -163t202 -52q188 0 340 120v113q-157 -137 -328 -137q-135 0 -213 100.5t-78 317.5h639q0 203 -109.5 322.5t-269.5 119.5q-94 0 -182 -52t-133 -143q-148 195 -383 195q-206 0 -334 -134 q-129 -134 -129 -345zM188 464q0 169 99.5 273.5t258.5 104.5t247 -97.5t88 -272.5t-92.5 -284.5t-245.5 -109.5q-154 0 -254.5 108.5t-100.5 277.5zM989 573q2 121 79 195t182.5 74t178 -71t80.5 -198h-520z" />
<glyph unicode="&#x178;" horiz-adv-x="1193" d="M0 1397l543 -647v-750h108v750l543 647h-131l-465 -553l-467 553h-131zM326 1659q0 -37 26.5 -63.5t63.5 -26.5t63.5 26.5t26.5 63.5t-26.5 63.5t-63.5 26.5t-63.5 -26.5t-26.5 -63.5zM688 1659q0 -37 26.5 -63.5t63.5 -26.5t63.5 26.5t26.5 63.5t-26.5 63.5t-63.5 26.5 t-63.5 -26.5t-26.5 -63.5z" />
<glyph unicode="&#x2c6;" horiz-adv-x="681" d="M59 1049h78l205 223l203 -223h78l-217 335h-125z" />
<glyph unicode="&#x2dc;" horiz-adv-x="681" d="M6 1122h66q12 98 86 99q35 0 139 -39.5t141 -50.5t70 -11q74 0 121 54q47 49 47 143h-62q-8 -53 -29.5 -76.5t-64.5 -23.5t-147 43l-19 8q-108 49 -186 49t-120 -56.5t-42 -138.5z" />
<glyph unicode="&#x2000;" horiz-adv-x="918" />
<glyph unicode="&#x2001;" horiz-adv-x="1837" />
<glyph unicode="&#x2002;" horiz-adv-x="918" />
<glyph unicode="&#x2003;" horiz-adv-x="1837" />
<glyph unicode="&#x2004;" horiz-adv-x="612" />
<glyph unicode="&#x2005;" horiz-adv-x="459" />
<glyph unicode="&#x2006;" horiz-adv-x="306" />
<glyph unicode="&#x2007;" horiz-adv-x="306" />
<glyph unicode="&#x2008;" horiz-adv-x="229" />
<glyph unicode="&#x2009;" horiz-adv-x="367" />
<glyph unicode="&#x200a;" horiz-adv-x="102" />
<glyph unicode="&#x2010;" horiz-adv-x="641" d="M78 414h485v96h-485v-96z" />
<glyph unicode="&#x2011;" horiz-adv-x="641" d="M78 414h485v96h-485v-96z" />
<glyph unicode="&#x2012;" horiz-adv-x="641" d="M78 414h485v96h-485v-96z" />
<glyph unicode="&#x2013;" d="M-12 479h1048v66h-1048v-66z" />
<glyph unicode="&#x2014;" horiz-adv-x="2048" d="M-12 479h2072v66h-2072v-66z" />
<glyph unicode="&#x2018;" horiz-adv-x="362" d="M115 963h133v198h-43q0 55 8 92t35 76v72q-63 -47 -98 -124t-35 -159v-155z" />
<glyph unicode="&#x2019;" horiz-adv-x="362" d="M115 963q66 47 99.5 123.5t33.5 158.5v156h-133v-199h43q0 -104 -43 -168v-71z" />
<glyph unicode="&#x201a;" horiz-adv-x="362" d="M115 0h43q0 -104 -43 -168v-72q66 47 99.5 124t33.5 159v156h-133v-199z" />
<glyph unicode="&#x201c;" horiz-adv-x="811" d="M115 963h133v198h-43q0 55 8 92t35 76v72q-63 -47 -98 -124t-35 -159v-155zM563 963h133v198h-43q0 103 43 168v72q-63 -47 -98 -124t-35 -159v-155z" />
<glyph unicode="&#x201d;" horiz-adv-x="811" d="M115 963q66 47 99.5 123.5t33.5 158.5v156h-133v-199h43q0 -104 -43 -168v-71zM563 963q66 47 99.5 123.5t33.5 158.5v156h-133v-199h43q0 -55 -8 -92t-35 -76v-71z" />
<glyph unicode="&#x201e;" horiz-adv-x="811" d="M119 0h43q0 -104 -43 -168v-72q66 47 99.5 124t33.5 159v156h-133v-199zM559 0h43q0 -55 -8 -92t-35 -76v-72q66 47 99.5 124t33.5 159v156h-133v-199z" />
<glyph unicode="&#x2022;" d="M262 698q0 -102 74 -175.5t176 -73.5t176 73.5t74 175.5t-74 176t-176 74t-176 -73.5t-74 -176.5z" />
<glyph unicode="&#x2026;" horiz-adv-x="2048" d="M274 0h134v199h-134v-199zM956 0h134v199h-134v-199zM1638 0h134v199h-134v-199z" />
<glyph unicode="&#x202f;" horiz-adv-x="367" />
<glyph unicode="&#x2039;" horiz-adv-x="575" d="M33 473l387 -459h123l-385 459l385 459h-123z" />
<glyph unicode="&#x203a;" horiz-adv-x="575" d="M33 14h123l387 459l-387 459h-123l385 -459z" />
<glyph unicode="&#x205f;" horiz-adv-x="459" />
<glyph unicode="&#x2122;" horiz-adv-x="1925" d="M205 1378h266v-729h104v729h265v84h-635v-84zM934 649h92v729h4l225 -729h70l240 729h4v-729h92v813h-156l-211 -649h-4l-203 649h-153v-813z" />
<glyph unicode="&#xe000;" horiz-adv-x="921" d="M0 0v922h922v-922h-922z" />
</font>
</defs>
</svg>
